<?xml version="1.0" encoding="UTF-8"?>
<svg xmlns="http://www.w3.org/2000/svg" viewBox="0 0 120 90">
  <defs>
    <style>
      .cls-1 {
        fill: #101212;
      }

      .cls-1, .cls-2 {
        stroke-width: 0px;
      }

      .cls-2 {
        fill: #f8f8ff;
      }
    </style>
  </defs>
  <g id="Camada_1" data-name="Camada 1">
    <rect class="cls-2" x="0" y="0" width="120" height="90"/>
    <g>
      <path class="cls-1" d="M7.11,45h-3.11s.68-.35,1.15-.97c0,0,.47.79,1.96.97Z"/>
      <path class="cls-1" d="M112.89,45h3.11s-.68-.35-1.15-.97c0,0-.47.79-1.96.97Z"/>
      <path class="cls-1" d="M60,6.28v-2.28s.47.5,1.32.85c0,0-1.08.35-1.32,1.43Z"/>
      <path class="cls-1" d="M64.29,7.58s-2.21-.17-2.55-1.01c-.48-1.19,1.48-1.65,2.27-1.29.79.36.41,1-.21,1-.33,0-.82-.31-.36-.6-.1-.08-1.15-.08-1.16.6-.02.83,2.01,1.3,2.01,1.3Z"/>
      <path class="cls-1" d="M63.46,6.63s.26.52.63.63c.38.11,1.02.06,1.02.06,0,0-.29-.34-.44-.39-.44-.15-.81-.06-1.21-.29Z"/>
      <path class="cls-1" d="M65.7,7.33c0,.13-.15.24-.33.24s-.33-.11-.33-.24.15-.24.33-.24.33.11.33.24Z"/>
      <g>
        <path class="cls-1" d="M110.87,7.76l2.2-1.61s-.82.11-1.75-.09c0,0,.43.8-.45,1.7Z"/>
        <path class="cls-1" d="M107.43,7.7s1.68.37,2.73-.06c1.49-.59.55-1.93-.36-2.09s-1.26.49-.82.82c.23.17.88.21.83-.24.15,0,.88.54.24,1.03-.79.6-2.63.54-2.63.54Z"/>
        <path class="cls-1" d="M109.34,6.64s-.26.52-.63.63c-.38.11-1.02.06-1.02.06,0,0,.29-.34.44-.39.44-.15.81-.06,1.21-.29Z"/>
        <path class="cls-1" d="M107.1,7.34c0,.13.15.24.33.24s.33-.11.33-.24-.15-.24-.33-.24-.33.11-.33.24Z"/>
        <path class="cls-1" d="M110.87,7.76l2.2-1.61s-.15.6.12,1.28c0,0-1.1-.31-2.32.33Z"/>
        <path class="cls-1" d="M110.94,10.27s-.5-1.23.08-2c.81-1.09,2.64-.4,2.85.26s-.68.92-1.12.6c-.23-.17-.28-.65.33-.61,0-.11-.74-.65-1.4-.18-.82.58-.73,1.93-.73,1.93Z"/>
        <path class="cls-1" d="M112.39,8.88s-.71.19-.86.46c-.15.28-.08.75-.08.75,0,0,.47-.21.54-.33.2-.33.08-.6.4-.89Z"/>
        <path class="cls-1" d="M111.44,10.52c-.18,0-.33-.11-.33-.24s.15-.24.33-.24.33.11.33.24-.15.24-.33.24Z"/>
      </g>
      <rect class="cls-1" x="65.5" y="7.23" width="41.93" height=".2"/>
      <path class="cls-1" d="M108.08,5.75s0-.06,0-.09h-42.74c-.04.24-.2.46-.44.61h43.36c-.12-.15-.19-.33-.19-.53Z"/>
      <path class="cls-1" d="M8.88,41.86s-.23,1.62-1.38,1.87c-1.63.35-2.25-1.08-1.76-1.66.49-.58,1.37-.3,1.37.15,0,.24-.42.6-.82.26-.11.08-.1.84.82.85,1.14.02,1.77-1.47,1.77-1.47Z"/>
      <path class="cls-1" d="M7.6,42.46s.71-.19.86-.46c.15-.28.08-.75.08-.75,0,0-.47.21-.54.33-.2.33-.08.6-.4.89Z"/>
      <path class="cls-1" d="M8.55,40.82c.18,0,.33.11.33.24s-.15.24-.33.24-.33-.11-.33-.24.15-.24.33-.24Z"/>
      <g>
        <path class="cls-1" d="M9.13,7.76l-2.2-1.61s.15.6-.12,1.28c0,0,1.1-.31,2.32.33Z"/>
        <path class="cls-1" d="M9.06,10.27s.5-1.23-.08-2c-.81-1.09-2.64-.4-2.85.26s.68.92,1.12.6c.23-.17.28-.65-.33-.61,0-.11.74-.65,1.4-.18.82.58.73,1.93.73,1.93Z"/>
        <path class="cls-1" d="M7.61,8.88s.71.19.86.46c.15.28.08.75.08.75,0,0-.47-.21-.54-.33-.2-.33-.08-.6-.4-.89Z"/>
        <path class="cls-1" d="M8.56,10.52c.18,0,.33-.11.33-.24s-.15-.24-.33-.24-.33.11-.33.24.15.24.33.24Z"/>
        <path class="cls-1" d="M9.13,7.76l-2.2-1.61s.82.11,1.75-.09c0,0-.43.8.45,1.7Z"/>
        <path class="cls-1" d="M12.57,7.7s-1.68.37-2.73-.06c-1.49-.59-.55-1.93.36-2.09s1.26.49.82.82c-.23.17-.88.21-.83-.24-.15,0-.88.54-.24,1.03.79.6,2.63.54,2.63.54Z"/>
        <path class="cls-1" d="M10.66,6.64s.26.52.63.63c.38.11,1.02.06,1.02.06,0,0-.29-.34-.44-.39-.44-.15-.81-.06-1.21-.29Z"/>
        <path class="cls-1" d="M12.9,7.34c0,.13-.15.24-.33.24s-.33-.11-.33-.24.15-.24.33-.24.33.11.33.24Z"/>
      </g>
      <rect class="cls-1" x="-6.8" y="25.49" width="30.7" height=".27" transform="translate(-17.07 34.18) rotate(-90)"/>
      <path class="cls-1" d="M6.39,9.8s-.08,0-.12,0v31.29c.33.03.62.15.84.32V9.66c-.21.09-.46.14-.72.14Z"/>
      <path class="cls-1" d="M60,6.28v-2.28s-.47.5-1.32.85c0,0,1.08.35,1.32,1.43Z"/>
      <path class="cls-1" d="M55.71,7.58s2.21-.17,2.55-1.01c.48-1.19-1.48-1.65-2.27-1.29-.79.36-.41,1,.21,1,.33,0,.82-.31.36-.6.1-.08,1.15-.08,1.16.6.02.83-2.01,1.3-2.01,1.3Z"/>
      <path class="cls-1" d="M56.54,6.63s-.26.52-.63.63c-.38.11-1.02.06-1.02.06,0,0,.29-.34.44-.39.44-.15.81-.06,1.21-.29Z"/>
      <path class="cls-1" d="M54.3,7.33c0,.13.15.24.33.24s.33-.11.33-.24-.15-.24-.33-.24-.33.11-.33.24Z"/>
      <g>
        <path class="cls-1" d="M9.13,7.76l-2.2-1.61s.82.11,1.75-.09c0,0-.43.8.45,1.7Z"/>
        <path class="cls-1" d="M12.57,7.7s-1.68.37-2.73-.06c-1.49-.59-.55-1.93.36-2.09s1.26.49.82.82c-.23.17-.88.21-.83-.24-.15,0-.88.54-.24,1.03.79.6,2.63.54,2.63.54Z"/>
        <path class="cls-1" d="M10.66,6.64s.26.52.63.63c.38.11,1.02.06,1.02.06,0,0-.29-.34-.44-.39-.44-.15-.81-.06-1.21-.29Z"/>
        <path class="cls-1" d="M12.9,7.34c0,.13-.15.24-.33.24s-.33-.11-.33-.24.15-.24.33-.24.33.11.33.24Z"/>
        <path class="cls-1" d="M9.13,7.76l-2.2-1.61s.15.6-.12,1.28c0,0,1.1-.31,2.32.33Z"/>
        <path class="cls-1" d="M9.06,10.27s.5-1.23-.08-2c-.81-1.09-2.64-.4-2.85.26s.68.92,1.12.6c.23-.17.28-.65-.33-.61,0-.11.74-.65,1.4-.18.82.58.73,1.93.73,1.93Z"/>
        <path class="cls-1" d="M7.61,8.88s.71.19.86.46c.15.28.08.75.08.75,0,0-.47-.21-.54-.33-.2-.33-.08-.6-.4-.89Z"/>
        <path class="cls-1" d="M8.56,10.52c.18,0,.33-.11.33-.24s-.15-.24-.33-.24-.33.11-.33.24.15.24.33.24Z"/>
      </g>
      <rect class="cls-1" x="12.57" y="7.23" width="41.93" height=".2" transform="translate(67.07 14.66) rotate(180)"/>
      <path class="cls-1" d="M11.92,5.75s0-.06,0-.09h42.74c.04.24.2.46.44.61H11.73c.12-.15.19-.33.19-.53Z"/>
      <rect class="cls-1" x="12.57" y="7.23" width="41.93" height=".2" transform="translate(67.07 14.66) rotate(180)"/>
      <path class="cls-1" d="M11.92,5.75s0-.06,0-.09h42.74c.04.24.2.46.44.61H11.73c.12-.15.19-.33.19-.53Z"/>
      <path class="cls-1" d="M111.12,41.86s.23,1.62,1.38,1.87c1.63.35,2.25-1.08,1.76-1.66-.49-.58-1.37-.3-1.37.15,0,.24.42.6.82.26.11.08.1.84-.82.85-1.14.02-1.77-1.47-1.77-1.47Z"/>
      <path class="cls-1" d="M112.4,42.46s-.71-.19-.86-.46c-.15-.28-.08-.75-.08-.75,0,0,.47.21.54.33.2.33.08.6.4.89Z"/>
      <path class="cls-1" d="M111.45,40.82c-.18,0-.33.11-.33.24s.15.24.33.24.33-.11.33-.24-.15-.24-.33-.24Z"/>
      <rect class="cls-1" x="96.1" y="25.49" width="30.7" height=".27" transform="translate(85.82 137.07) rotate(-90)"/>
      <path class="cls-1" d="M113.61,9.8s.08,0,.12,0v31.29c-.33.03-.62.15-.84.32V9.66c.21.09.46.14.72.14Z"/>
      <path class="cls-1" d="M60,83.72v2.28s.47-.5,1.32-.85c0,0-1.08-.35-1.32-1.43Z"/>
      <path class="cls-1" d="M64.29,82.42s-2.21.17-2.55,1.01c-.48,1.19,1.48,1.65,2.27,1.29.79-.36.41-1-.21-1-.33,0-.82.31-.36.6-.1.08-1.15.08-1.16-.6-.02-.83,2.01-1.3,2.01-1.3Z"/>
      <path class="cls-1" d="M63.46,83.37s.26-.52.63-.63c.38-.11,1.02-.06,1.02-.06,0,0-.29.34-.44.39-.44.15-.81.06-1.21.29Z"/>
      <path class="cls-1" d="M65.7,82.67c0-.13-.15-.24-.33-.24s-.33.11-.33.24.15.24.33.24.33-.11.33-.24Z"/>
      <g>
        <path class="cls-1" d="M110.87,82.24l2.2,1.61s-.82-.11-1.75.09c0,0,.43-.8-.45-1.7Z"/>
        <path class="cls-1" d="M107.43,82.3s1.68-.37,2.73.06c1.49.59.55,1.93-.36,2.09s-1.26-.49-.82-.82c.23-.17.88-.21.83.24.15,0,.88-.54.24-1.03-.79-.6-2.63-.54-2.63-.54Z"/>
        <path class="cls-1" d="M109.34,83.36s-.26-.52-.63-.63c-.38-.11-1.02-.06-1.02-.06,0,0,.29.34.44.39.44.15.81.06,1.21.29Z"/>
        <path class="cls-1" d="M107.1,82.66c0-.13.15-.24.33-.24s.33.11.33.24-.15.24-.33.24-.33-.11-.33-.24Z"/>
        <path class="cls-1" d="M110.87,82.24l2.2,1.61s-.15-.6.12-1.28c0,0-1.1.31-2.32-.33Z"/>
        <path class="cls-1" d="M110.94,79.73s-.5,1.23.08,2c.81,1.09,2.64.4,2.85-.26s-.68-.92-1.12-.6c-.23.17-.28.65.33.61,0,.11-.74.65-1.4.18-.82-.58-.73-1.93-.73-1.93Z"/>
        <path class="cls-1" d="M112.39,81.12s-.71-.19-.86-.46c-.15-.28-.08-.75-.08-.75,0,0,.47.21.54.33.2.33.08.6.4.89Z"/>
        <path class="cls-1" d="M111.44,79.48c-.18,0-.33.11-.33.24s.15.24.33.24.33-.11.33-.24-.15-.24-.33-.24Z"/>
      </g>
      <rect class="cls-1" x="65.5" y="82.57" width="41.93" height=".2"/>
      <path class="cls-1" d="M108.08,84.25s0,.06,0,.09h-42.74c-.04-.24-.2-.46-.44-.61h43.36c-.12.15-.19.33-.19.53Z"/>
      <path class="cls-1" d="M7.11,45h-3.11s.68.35,1.15.97c0,0,.47-.79,1.96-.97Z"/>
      <path class="cls-1" d="M8.88,48.14s-.23-1.62-1.38-1.87c-1.63-.35-2.25,1.08-1.76,1.66.49.58,1.37.3,1.37-.15,0-.24-.42-.6-.82-.26-.11-.08-.1-.84.82-.85,1.14-.02,1.77,1.47,1.77,1.47Z"/>
      <path class="cls-1" d="M7.6,47.54s.71.19.86.46c.15.28.08.75.08.75,0,0-.47-.21-.54-.33-.2-.33-.08-.6-.4-.89Z"/>
      <path class="cls-1" d="M8.55,49.18c.18,0,.33-.11.33-.24s-.15-.24-.33-.24-.33.11-.33.24.15.24.33.24Z"/>
      <g>
        <path class="cls-1" d="M9.13,82.24l-2.2,1.61s.15-.6-.12-1.28c0,0,1.1.31,2.32-.33Z"/>
        <path class="cls-1" d="M9.06,79.73s.5,1.23-.08,2c-.81,1.09-2.64.4-2.85-.26s.68-.92,1.12-.6c.23.17.28.65-.33.61,0,.11.74.65,1.4.18.82-.58.73-1.93.73-1.93Z"/>
        <path class="cls-1" d="M7.61,81.12s.71-.19.86-.46c.15-.28.08-.75.08-.75,0,0-.47.21-.54.33-.2.33-.08.6-.4.89Z"/>
        <path class="cls-1" d="M8.56,79.48c.18,0,.33.11.33.24s-.15.24-.33.24-.33-.11-.33-.24.15-.24.33-.24Z"/>
        <path class="cls-1" d="M9.13,82.24l-2.2,1.61s.82-.11,1.75.09c0,0-.43-.8.45-1.7Z"/>
        <path class="cls-1" d="M12.57,82.3s-1.68-.37-2.73.06c-1.49.59-.55,1.93.36,2.09s1.26-.49.82-.82c-.23-.17-.88-.21-.83.24-.15,0-.88-.54-.24-1.03.79-.6,2.63-.54,2.63-.54Z"/>
        <path class="cls-1" d="M10.66,83.36s.26-.52.63-.63c.38-.11,1.02-.06,1.02-.06,0,0-.29.34-.44.39-.44.15-.81.06-1.21.29Z"/>
        <path class="cls-1" d="M12.9,82.66c0-.13-.15-.24-.33-.24s-.33.11-.33.24.15.24.33.24.33-.11.33-.24Z"/>
      </g>
      <rect class="cls-1" x="-6.8" y="64.24" width="30.7" height=".27" transform="translate(72.93 55.82) rotate(90)"/>
      <path class="cls-1" d="M6.39,80.2s-.08,0-.12,0v-31.29c.33-.03.62-.15.84-.32v31.75c-.21-.09-.46-.14-.72-.14Z"/>
      <path class="cls-1" d="M60,83.72v2.28s-.47-.5-1.32-.85c0,0,1.08-.35,1.32-1.43Z"/>
      <path class="cls-1" d="M55.71,82.42s2.21.17,2.55,1.01c.48,1.19-1.48,1.65-2.27,1.29-.79-.36-.41-1,.21-1,.33,0,.82.31.36.6.1.08,1.15.08,1.16-.6.02-.83-2.01-1.3-2.01-1.3Z"/>
      <path class="cls-1" d="M56.54,83.37s-.26-.52-.63-.63c-.38-.11-1.02-.06-1.02-.06,0,0,.29.34.44.39.44.15.81.06,1.21.29Z"/>
      <path class="cls-1" d="M54.3,82.67c0-.13.15-.24.33-.24s.33.11.33.24-.15.24-.33.24-.33-.11-.33-.24Z"/>
      <g>
        <path class="cls-1" d="M9.13,82.24l-2.2,1.61s.82-.11,1.75.09c0,0-.43-.8.45-1.7Z"/>
        <path class="cls-1" d="M12.57,82.3s-1.68-.37-2.73.06c-1.49.59-.55,1.93.36,2.09s1.26-.49.82-.82c-.23-.17-.88-.21-.83.24-.15,0-.88-.54-.24-1.03.79-.6,2.63-.54,2.63-.54Z"/>
        <path class="cls-1" d="M10.66,83.36s.26-.52.63-.63c.38-.11,1.02-.06,1.02-.06,0,0-.29.34-.44.39-.44.15-.81.06-1.21.29Z"/>
        <path class="cls-1" d="M12.9,82.66c0-.13-.15-.24-.33-.24s-.33.11-.33.24.15.24.33.24.33-.11.33-.24Z"/>
        <path class="cls-1" d="M9.13,82.24l-2.2,1.61s.15-.6-.12-1.28c0,0,1.1.31,2.32-.33Z"/>
        <path class="cls-1" d="M9.06,79.73s.5,1.23-.08,2c-.81,1.09-2.64.4-2.85-.26s.68-.92,1.12-.6c.23.17.28.65-.33.61,0,.11.74.65,1.4.18.82-.58.73-1.93.73-1.93Z"/>
        <path class="cls-1" d="M7.61,81.12s.71-.19.86-.46c.15-.28.08-.75.08-.75,0,0-.47.21-.54.33-.2.33-.08.6-.4.89Z"/>
        <path class="cls-1" d="M8.56,79.48c.18,0,.33.11.33.24s-.15.24-.33.24-.33-.11-.33-.24.15-.24.33-.24Z"/>
      </g>
      <rect class="cls-1" x="12.57" y="82.57" width="41.93" height=".2" transform="translate(67.07 165.34) rotate(180)"/>
      <path class="cls-1" d="M11.92,84.25s0,.06,0,.09h42.74c.04-.24.2-.46.44-.61H11.73c.12.15.19.33.19.53Z"/>
      <rect class="cls-1" x="12.57" y="82.57" width="41.93" height=".2" transform="translate(67.07 165.34) rotate(180)"/>
      <path class="cls-1" d="M11.92,84.25s0,.06,0,.09h42.74c.04-.24.2-.46.44-.61H11.73c.12.15.19.33.19.53Z"/>
      <path class="cls-1" d="M112.89,45h3.11s-.68.35-1.15.97c0,0-.47-.79-1.96-.97Z"/>
      <path class="cls-1" d="M111.12,48.14s.23-1.62,1.38-1.87c1.63-.35,2.25,1.08,1.76,1.66-.49.58-1.37.3-1.37-.15,0-.24.42-.6.82-.26.11-.08.1-.84-.82-.85-1.14-.02-1.77,1.47-1.77,1.47Z"/>
      <path class="cls-1" d="M112.4,47.54s-.71.19-.86.46c-.15.28-.08.75-.08.75,0,0,.47-.21.54-.33.2-.33.08-.6.4-.89Z"/>
      <path class="cls-1" d="M111.45,49.18c-.18,0-.33-.11-.33-.24s.15-.24.33-.24.33.11.33.24-.15.24-.33.24Z"/>
      <rect class="cls-1" x="96.1" y="64.24" width="30.7" height=".27" transform="translate(175.82 -47.07) rotate(90)"/>
      <path class="cls-1" d="M113.61,80.2s.08,0,.12,0v-31.29c-.33-.03-.62-.15-.84-.32v31.75c.21-.09.46-.14.72-.14Z"/>
    </g>
  </g>
  <g id="Camada_2" data-name="Camada 2">
    <path class="cls-1" d="M0,89.97s.03.02.05.03h119.91s.03-.02.05-.03v-6.96c-.56-.57-1.27-1.01-2.12-1.21l-3.54-.84c-.71-.17-1.24-.7-1.35-1.35l-.13-.77c1.66-1.45,2.77-3.95,2.77-6.42,0-3.81-2.63-6.42-5.88-6.42s-5.88,2.61-5.88,6.42c0,2.47,1.11,4.97,2.77,6.42l-.13.77c-.11.65-.64,1.18-1.35,1.35l-3.54.84c-.69.17-1.31.49-1.82.91-.51-.43-1.13-.75-1.82-.91l-3.54-.84c-.71-.17-1.24-.7-1.35-1.35l-.13-.77c1.66-1.45,2.77-3.95,2.77-6.42,0-3.81-2.63-6.42-5.88-6.42s-5.88,2.61-5.88,6.42c0,2.47,1.11,4.97,2.77,6.42l-.13.77c-.11.65-.64,1.18-1.35,1.35l-3.54.84c-.69.17-1.31.49-1.82.91-.51-.43-1.13-.75-1.82-.91l-3.54-.84c-.71-.17-1.24-.7-1.35-1.35l-.13-.77c1.66-1.45,2.77-3.95,2.77-6.42,0-3.81-2.63-6.42-5.88-6.42s-5.88,2.61-5.88,6.42c0,2.47,1.11,4.97,2.77,6.42l-.13.77c-.11.65-.64,1.18-1.35,1.35l-3.54.84c-.69.17-1.31.49-1.82.91-.51-.43-1.13-.75-1.82-.91l-3.54-.84c-.71-.17-1.24-.7-1.35-1.35l-.13-.77c1.66-1.45,2.77-3.95,2.77-6.42,0-3.81-2.63-6.42-5.88-6.42s-5.88,2.61-5.88,6.42c0,2.47,1.11,4.97,2.77,6.42l-.13.77c-.11.65-.64,1.18-1.35,1.35l-3.54.84c-.69.17-1.31.49-1.82.91-.51-.43-1.13-.75-1.82-.91l-3.54-.84c-.71-.17-1.24-.7-1.35-1.35l-.13-.77c1.66-1.45,2.77-3.95,2.77-6.42,0-3.81-2.63-6.42-5.88-6.42s-5.88,2.61-5.88,6.42c0,2.47,1.11,4.97,2.77,6.42l-.13.77c-.11.65-.64,1.18-1.35,1.35l-3.54.84c-.69.17-1.31.49-1.82.91-.51-.43-1.13-.75-1.82-.91l-3.54-.84c-.71-.17-1.24-.7-1.35-1.35l-.13-.77c1.66-1.45,2.77-3.95,2.77-6.42,0-3.81-2.63-6.42-5.88-6.42s-5.88,2.61-5.88,6.42c0,2.47,1.11,4.97,2.77,6.42l-.13.77c-.11.65-.64,1.18-1.35,1.35l-3.54.84c-.84.2-1.56.64-2.12,1.21v6.96Z"/>
  </g>
  <g id="Camada_3" data-name="Camada 3">
    <g>
      <path class="cls-1" d="M60,16.8c-.45.58-1.08.97-1.73,1.3-.66.31-1.35.56-2.06.73-1.41.36-2.89.46-4.33.52-1.41.06-2.82.42-4.02,1.12-1.2.67-2.19,1.79-2.37,3.1l-.04.24v.25s0,.25,0,.25c0,.08.02.16.03.24.04.33.12.64.26.92.15.27.34.51.57.68.23.17.51.25.75.23.24-.02.45-.15.6-.37l.09-.18c.03-.06.04-.14.07-.2.05-.14.06-.26.04-.39-.04-.52-.5-1.03-1.05-1.35-.56-.33-1.21-.52-1.88-.61-.67-.09-1.36-.08-2.05,0-.69.08-1.36.25-2.03.47l-2.04.7c-2.74.93-5.5,1.85-8.3,2.61-1.4.38-2.82.71-4.26.98-1.44.27-2.89.47-4.37.48-.74,0-1.48-.03-2.22-.15-.74-.13-1.48-.35-2.14-.74-.66-.38-1.26-1.01-1.46-1.81-.2-.79.02-1.62.44-2.26.42-.64,1.04-1.15,1.75-1.42.71-.28,1.54-.28,2.22.08.33.18.64.4.88.69.24.3.39.67.38,1.05-.01.38-.17.74-.4,1.02-.23.29-.54.52-.91.56.36-.06.65-.31.86-.6.2-.29.33-.64.32-.98,0-.35-.16-.67-.38-.93-.23-.25-.53-.45-.84-.6-.63-.29-1.37-.26-1.99.02-.63.27-1.16.76-1.5,1.34-.34.58-.5,1.28-.31,1.89.17.62.66,1.11,1.25,1.43,1.2.65,2.65.75,4.05.7,2.84-.14,5.65-.82,8.42-1.59,2.77-.78,5.51-1.69,8.24-2.63l2.06-.7c.71-.23,1.44-.41,2.2-.49.75-.09,1.52-.1,2.28,0,.76.11,1.52.33,2.21.74.34.21.66.47.93.8.26.33.47.75.5,1.21.02.23-.01.48-.08.68-.04.1-.06.21-.11.31-.05.1-.11.2-.16.3-.25.39-.72.68-1.19.71-.48.04-.93-.13-1.28-.39-.35-.26-.62-.6-.8-.97-.18-.37-.27-.78-.31-1.16,0-.1-.03-.19-.03-.29v-.3s.01-.3.01-.3l.05-.29c.13-.78.5-1.51.99-2.09.49-.6,1.12-1.06,1.78-1.41,1.33-.71,2.82-1.04,4.3-1.05,1.45.01,2.88-.02,4.29-.31.7-.13,1.39-.34,2.06-.62.66-.28,1.31-.63,1.79-1.17Z"/>
      <path class="cls-1" d="M55.62,24.49c-2.09-1.07-4.23-2.01-6.43-2.74-2.2-.7-4.48-1.19-6.71-.89-1.1.14-2.19.49-3.03,1.15-.42.32-.79.72-1.04,1.18-.25.46-.4.98-.4,1.5,0,.52.15,1.04.48,1.41.16.19.36.33.6.42.25.1.51.17.77.19.52.04,1.09-.11,1.46-.5.18-.19.29-.46.23-.72-.05-.27-.27-.49-.52-.64.27.11.54.29.66.6.12.31.02.66-.16.93-.38.53-1.04.79-1.68.81-.32,0-.64-.05-.95-.14-.32-.09-.63-.28-.87-.52-.48-.49-.71-1.16-.74-1.81-.08-1.32.64-2.58,1.62-3.37,1-.81,2.24-1.2,3.44-1.37,1.22-.16,2.45-.09,3.63.11,1.18.23,2.33.56,3.44,1,2.21.87,4.3,2.01,6.19,3.41Z"/>
      <path class="cls-1" d="M60,16.8c.48.55,1.13.89,1.79,1.17.66.28,1.35.48,2.06.62,1.41.29,2.84.32,4.29.31,1.47,0,2.97.33,4.3,1.05.66.35,1.28.82,1.78,1.41.5.59.87,1.31.99,2.09l.05.29v.3s.01.3.01.3c0,.1-.02.2-.03.29-.04.39-.12.79-.31,1.16-.18.37-.45.71-.8.97-.35.25-.8.42-1.28.39-.48-.03-.95-.32-1.19-.71-.06-.1-.11-.2-.16-.3-.05-.1-.07-.2-.11-.31-.07-.2-.1-.45-.08-.68.03-.47.24-.88.5-1.21.26-.33.59-.59.93-.8.69-.42,1.45-.64,2.21-.74.76-.1,1.53-.09,2.28,0,.75.09,1.48.27,2.2.49l2.06.7c2.73.94,5.47,1.86,8.24,2.63,2.76.77,5.58,1.45,8.42,1.59,1.4.05,2.86-.06,4.05-.7.59-.32,1.08-.81,1.25-1.43.18-.62.03-1.31-.31-1.89-.34-.58-.88-1.07-1.5-1.34-.62-.28-1.36-.31-1.99-.02-.31.15-.61.35-.84.6-.23.26-.37.58-.38.93-.01.35.11.69.32.98.2.29.49.54.86.6-.36-.04-.68-.27-.91-.56-.23-.29-.38-.64-.4-1.02-.01-.38.14-.76.38-1.05.25-.29.55-.52.88-.69.68-.36,1.51-.36,2.22-.08.71.27,1.33.78,1.75,1.42.42.64.64,1.46.44,2.26-.19.8-.8,1.43-1.46,1.81-.67.39-1.41.62-2.14.74-.74.13-1.48.16-2.22.15-1.48-.02-2.93-.22-4.37-.48-1.43-.27-2.85-.61-4.26-.98-2.81-.76-5.56-1.68-8.3-2.61l-2.04-.7c-.66-.22-1.34-.38-2.03-.47-.69-.09-1.38-.1-2.05,0-.67.09-1.33.29-1.88.61-.55.32-1.01.82-1.05,1.35-.01.13,0,.25.04.39.02.07.04.14.07.2l.09.18c.14.22.35.35.6.37.24.02.52-.06.75-.23.24-.17.43-.41.57-.68.14-.27.22-.59.26-.92,0-.08.03-.16.03-.24v-.25s0-.25,0-.25l-.04-.24c-.18-1.31-1.17-2.43-2.37-3.1-1.2-.7-2.61-1.06-4.02-1.12-1.44-.06-2.92-.15-4.33-.52-.71-.17-1.4-.41-2.06-.73-.65-.33-1.29-.72-1.73-1.3Z"/>
      <path class="cls-1" d="M64.38,24.49c1.89-1.4,3.98-2.54,6.19-3.41,1.1-.44,2.26-.77,3.44-1,1.19-.21,2.42-.27,3.63-.11,1.21.17,2.44.56,3.44,1.37.99.8,1.7,2.05,1.62,3.37-.03.65-.26,1.32-.74,1.81-.24.24-.55.43-.87.52-.3.09-.63.14-.95.14-.64-.02-1.3-.28-1.68-.81-.18-.26-.28-.62-.16-.93.12-.31.39-.49.66-.6-.25.15-.47.37-.52.64-.06.26.06.53.23.72.36.39.93.54,1.46.5.26-.02.53-.09.77-.19.24-.09.44-.24.6-.42.33-.37.48-.89.48-1.41,0-.52-.15-1.04-.4-1.5-.25-.46-.61-.86-1.04-1.18-.85-.66-1.93-1.01-3.03-1.15-2.23-.3-4.52.19-6.71.89-2.2.72-4.34,1.67-6.43,2.74Z"/>
    </g>
    <polygon class="cls-1" points="73 44.98 50 31.7 50 58.26 73 44.98"/>
  </g>
</svg>